<?xml version="1.0" standalone="no"?>
<!DOCTYPE svg PUBLIC "-//W3C//DTD SVG 20010904//EN"
 "http://www.w3.org/TR/2001/REC-SVG-20010904/DTD/svg10.dtd">
<svg version="1.0" xmlns="http://www.w3.org/2000/svg"
 width="443.000000pt" height="443.000000pt" viewBox="0 0 443.000000 443.000000"
 preserveAspectRatio="xMidYMid meet">
<metadata>
Created by potrace 1.11, written by Peter Selinger 2001-2013
</metadata>
<g transform="translate(0.000000,443.000000) scale(0.100000,-0.100000)"
fill="#000000" stroke="none">
<path d="M247 4019 c-80 -12 -108 -27 -134 -75 -68 -122 -67 -245 1 -534 71
-305 77 -397 39 -630 -34 -212 20 -373 157 -474 102 -76 234 -115 438 -131 45
-4 82 -11 82 -15 0 -4 -30 -27 -67 -51 -137 -90 -265 -239 -314 -368 -32 -84
-30 -203 6 -301 84 -228 251 -483 456 -694 141 -146 271 -237 438 -306 144
-59 155 -55 304 89 257 249 450 574 530 893 13 50 28 93 34 95 6 2 14 -18 18
-44 12 -81 73 -252 135 -381 104 -216 233 -395 407 -563 127 -123 150 -136
218 -119 69 17 220 92 324 160 142 94 328 297 463 505 127 195 201 353 219
468 31 193 -105 414 -359 584 -29 19 -51 37 -49 39 2 2 42 7 88 9 362 22 560
159 600 417 11 66 10 92 -6 190 -22 132 -25 310 -6 418 7 41 31 147 52 235 63
254 62 390 -4 509 -27 50 -52 63 -146 76 -149 21 -392 -36 -581 -136 -360
-191 -779 -589 -1052 -999 -139 -209 -279 -525 -303 -687 -9 -63 -31 -63 -40
0 -12 85 -87 293 -156 431 -126 254 -299 489 -553 749 -398 407 -764 620
-1111 645 -38 3 -96 1 -128 -4z m1421 -1096 c156 -168 302 -466 347 -711 9
-48 18 -97 21 -110 l4 -22 182 2 182 3 12 71 c46 273 168 539 347 755 l55 66
212 6 c271 9 420 9 420 0 0 -3 -31 -40 -68 -82 -277 -308 -416 -610 -429 -937
-6 -146 5 -247 42 -394 67 -261 218 -526 429 -754 20 -21 36 -40 36 -42 0 -2
-47 -4 -105 -4 l-105 0 -34 38 c-215 238 -370 556 -421 861 -27 158 -17 378
23 533 50 194 131 363 259 540 35 48 63 89 63 90 0 4 -232 0 -235 -4 -23 -26
-100 -159 -145 -253 -89 -183 -149 -393 -166 -578 l-7 -77 -361 2 -361 3 -7
80 c-22 242 -137 569 -270 763 l-43 63 -117 2 c-75 1 -114 -2 -110 -8 3 -5 19
-27 35 -49 80 -102 188 -294 232 -411 115 -307 120 -621 15 -939 -62 -185
-199 -426 -335 -586 l-59 -70 -115 0 -115 0 40 42 c192 201 369 505 429 737
47 183 59 409 31 571 -46 260 -182 520 -398 761 -49 54 -88 101 -88 105 0 4
141 4 313 0 l312 -6 53 -57z m927 -1220 c18 -175 75 -373 158 -543 52 -107
188 -319 226 -354 11 -11 21 -23 21 -28 0 -4 -42 -8 -94 -8 l-94 0 -77 118
c-133 203 -254 475 -296 665 l-12 57 -205 -2 -205 -3 -28 -105 c-53 -204 -150
-414 -289 -624 l-70 -106 -90 0 -90 0 68 93 c173 234 282 481 327 741 8 49 15
106 15 127 l0 39 364 0 364 0 7 -67z"/>
</g>
</svg>
